# xmcd CD database file
#
# Track frame offsets:
#	150
#	13379
#	28835
#	42917
#	57299
#	73687
#	105247
#	118657
#	134994
#	150337
#	200977
#	219241
#	244882
#	277404
#	305678
#
# Disc length: 4381 seconds
#
# Revision: 0
# Processed by: cddbd v1.5.1PL0 Copyright (c) Steve Scherf et al.
# Submitted via: CDex 1.51
#
DISCID=ec111b0f
DTITLE=Modern Jazz Quartet - Softly (As In A Morning Sunrise)
DYEAR=1998
DGENRE=Jazz
TTITLE0=Dand E
TTITLE1=Softly, As In A Morning Sunrise
TTITLE2=La Ronde
TTITLE3=Vendome
TTITLE4=Autumn in New York
TTITLE5=Django
TTITLE6=One Bass Hit
TTITLE7=Concorde
TTITLE8=Versailles
TTITLE9=Fontessa
TTITLE10=Baden-Baden
TTITLE11=Bag's Groove
TTITLE12=Night in Tunisia
TTITLE13=How High The Moon
TTITLE14=One Note Samba
EXTD=YEAR: 1998
EXTT0=
EXTT1=
EXTT2=
EXTT3=
EXTT4=
EXTT5=
EXTT6=
EXTT7=
EXTT8=
EXTT9=
EXTT10=
EXTT11=
EXTT12=
EXTT13=
EXTT14=
PLAYORDER=
